# xmcd CD database file
# Copyright (C) 1997 Ti Kan
# 
# Track frame offsets:
#     150
#     23147
#     41602
#     56482
#     72990
#     95680
#     109315
#     131460
#     149167
#     165427
# 
# Disc length: 2393 seconds
# 
# Revision: 1
# Processed by: cddbd v1.4b41PL1 Copyright (c) Steve Scherf et al.
# Submitted via: DiscPlay 4.0.3
# 
DISCID=8f09570a
DTITLE=Tom Jackson - No Regrets
DYEAR=1900
DGENRE=
TTITLE0=No Regrets
TTITLE1=Hooker
TTITLE2=Humble Me
TTITLE3=Few And Far Between
TTITLE4=Cant Take That Away
TTITLE5=Song For A Lady
TTITLE6=Love Turning Blue
TTITLE7=Track Me Right
TTITLE8=Move On Down The Line
TTITLE9=Out Of Control
EXTD=
EXTT0=
EXTT1=
EXTT2=
EXTT3=
EXTT4={The Vampire}\n
EXTT5=
EXTT6=
EXTT7=
EXTT8=
EXTT9=
PLAYORDER=
